<?xml version="1.0" encoding="utf-8"?>
<!-- Generator: Adobe Illustrator 27.9.0, SVG Export Plug-In . SVG Version: 6.00 Build 0)  -->
<svg version="1.1" id="Camada_1" xmlns="http://www.w3.org/2000/svg" xmlns:xlink="http://www.w3.org/1999/xlink" x="0px" y="0px"
	 viewBox="0 0 768 1579" style="enable-background:new 0 0 768 1579;" xml:space="preserve">
<style type="text/css">
	.st0{fill:#6F8A99;}
	.st1{fill:none;}
	.st2{font-family:'dTJakob-DFLT-Regular';}
	.st3{font-size:30.72px;}
	.st4{font-family:'dTJakob-DFLT-SemiBold';}
	.st5{font-family:'dTJakobDFLT-Bold';}
	.st6{opacity:6.000000e-02;}
	.st7{fill:none;stroke:#000000;stroke-width:8;stroke-miterlimit:10;}
</style>
<polygon class="st0" points="0.4,0 0.4,1579 768,1579 768,1416.6 768,1416.6 768,162.4 768,162.4 768,0 "/>
<rect x="31.1" y="489.8" class="st1" width="706.6" height="210.4"/>
<g>
	<g>
		<path d="M273.6,896l-4.2-0.3c2.4-39.4,35.3-70.3,74.9-70.3v4.3C306.9,829.7,275.9,858.9,273.6,896z"/>
		<g>
			<polygon points="290.6,884 287.9,880.6 271.9,894.4 259.4,877.6 256,880.2 271.3,900.6 			"/>
		</g>
	</g>
</g>
<rect x="113.8" y="489.7" class="st1" width="540.4" height="181.9"/>
<text transform="matrix(1 0 0 1 158.1646 513.6337)" class="st2 st3">Para uma melhor experiência,</text>
<text transform="matrix(1 0 0 1 201.4646 585.6337)" class="st2 st3">deixe seu </text>
<text transform="matrix(1 0 0 1 353.1646 585.6337)" class="st4 st3">dispositivo </text>
<text transform="matrix(1 0 0 1 529.1646 585.6337)" class="st2 st3">na</text>
<text transform="matrix(1 0 0 1 238.0646 657.6337)" class="st5 st3">posição horizontal</text>
<text transform="matrix(1 0 0 1 529.9646 657.6337)" class="st2 st3"> </text>
<path class="st6" d="M699.1,0H95H0.2v81.1v1442.2v55.7H78h650.6h39.2v-56.7v-105.7V162.4V59.8V0H699.1z M650.6,1501.3
	c-1.8,4.4-4.8,4.5-8.9,3.4c-10.6-3-10.5-2.9-11.2-14.1c-0.1-1.8-1.8-4.4-3.4-5.1c-12.6-4.8-22.9-12.6-30.5-23.8
	c-1.7-2.4-3.2-3-6.2-1.7c-7.6,3.4-15.3,6.5-23.1,9.2c-9.8,3.4-16.3,11.3-24.1,17.4c-6.5,5.1-13,10.4-18.7,16.5
	c-5.6,6-10.2,13.1-15.5,20c-4.4-2-8.5-4.1-12.8-5.7c-1.9-0.6-4.9-0.7-6.2,0.4c-9.8,8.5-19.9,8.8-31.4,3.1
	c-7.7-3.8-16.2-5.8-24.2-8.9c-3.3-1.3-5.8-1.2-7.5,2.1c-1.8,3.3-4,3.9-7.8,2.8c-3.6-1-7.6-0.7-11.4-0.5c-3,0.1-4.4-1.2-5.6-3.8
	c-4.7-10.6-9.7-21.2-14.4-31.8c-1.4-3.2-3.1-4.5-6.7-4.5c-5.3,0-10.9,1.2-15.5-3.5c-1-1-4.5-0.2-6.4,0.7c-11.6,5-11.5,5-20.7-3.6
	c-3.9-3.7-7.9-7.1-11.7-10.9c-2.3-2.3-4.3-3.5-7.1-0.5c-1.1,1.1-2.8,1.9-4.4,2.3c-2.7,0.7-5.5,1.1-8.3,1.6c-0.2-0.5-0.4-1-0.7-1.5
	c-2.6,5-5.3,9.9-7.7,15c-1.4,3-2.9,4.3-6.5,3.1c-5.3-1.8-11-2.7-16.3-4.4c-3.3-1.1-4.9,0-6.2,2.8c-1.4,3-3.1,5.9-4.9,8.7
	c-0.7,1.1-2.1,1.9-3.1,2.8c-0.8-1-1.8-1.9-2.3-3c-4.1-9.8-8.1-19.7-12-29.6c-1.5-3.8-3.4-6.6-7.6-7.7c-6.8-1.6-12.6-4.9-16.5-12.3
	c-5.8,12.7-11.5,24-16.1,35.7c-7.7,19.8-22,34.1-37.5,47.6c-2.9,2.6-4.2,1-5.8-1.3c-6.4-9.3-12.8-18.6-19.6-28.3
	c-4.4,3.7-8.6,7.1-13.4,11.1c-3.4-5.7-6.6-10.9-9.5-16.2c-1.5-2.8-3.3-4.4-6.6-3.9c-7.8,1.2-14.3-1.6-20.4-7.2
	c-3.5,6.6-6.6,12.7-10.1,19.4c-0.9-0.3-1.8-0.7-2.7-1.1c-4.7-3.5-9.2-7-13.9-10.5c0.4-1.6,0.7-3.2,0.7-4.9c0-1.1,0.1-2.1,0.5-3.1
	c0.2-0.5,0.2-1.2,0.3-1.7c0.1-1.1,0.2-2.2,0.2-3.4c0.1-1.1,0.1-2.1,0.6-3.1c0.2-0.4,0.2-0.9,0.2-1.3c0.1-1.4,0.2-2.8,0.3-4.1
	c0.1-0.9,0-1.8,0.5-2.7c0.2-0.3,0-0.9,0-1.4c-1.6-0.7-3.2-1.5-4.8-2.2c-1.4-0.6-2.7-1.2-4.1-1.8c-1-0.4-1.9-0.8-2.9-1.2
	c-1.3-0.5-2.4-1.2-3.8-1.5c-1.2-0.3-2.2-1.1-3.3-1.8c-0.5-0.3-0.7-0.8-0.7-1.4c-0.1-1.4-0.2-2.9-0.3-4.3c0-0.6,0.1-1.2-0.2-1.8
	c-0.8-1.8-0.7-3.7-0.7-5.6c0-0.9,0.1-1.7,0-2.6c-0.1-1.4,0.6-2.3,1.7-2.9c0.9-0.5,2-0.7,2.7-1.5c1.5-0.4,2.7-1.3,4-2.1
	c0.9-0.6,1.9-0.8,2.9-0.8c3.9-0.1,7.8-0.2,11.6-0.3c0.7,0,1.5,0,2.1-0.3c1-0.3,1.9-0.4,2.9-0.4c1.9,0,3.8,0,5.7,0
	c1.2,0,2.3-0.1,3.4-0.8c1.3-0.9,2.8-1.4,4.2-2.2c1-0.6,2.1-1.1,3.1-1.7c1.2-0.7,2.6-0.5,3.8,0.1c0.7,0.3,1.3,0.5,2,0.7
	c0.6,0.1,1.2,0.4,1.9,0.6c0.3,0.1,0.6,0.3,0.9,0.3c1.9,0.4,3.7,1,5.4,1.7c0.4,0.1,0.8,0.2,1.1,0.3c0.3,0.1,0.7,0,1,0.1
	c1.5,1.1,3.4,0.7,5,1.3c0.4-0.4,0.3-0.8,0-1.1c-2.1-2-4.3-3.9-6.3-5.9c-1.3-1.3-2.8-2.4-4.4-3.2c-1.9-0.9-3.6-2-5.5-2.9
	c-0.7-0.3-1.2-0.8-1.8-1.2c-1.4-0.9-3-1.5-4.5-2.3c-0.9-0.4-1.7-0.9-2.5-1.5c-0.4-0.3-0.6-0.7-0.6-1.2c-0.1-2.6-0.8-5.1-0.8-7.7
	c0-1.8-0.2-3.5-0.4-5.3c-0.4-3.1-0.5-6.3-0.7-9.5c-0.1-0.8-0.1-1.6-0.1-2.4c0-0.9-0.4-1.6-0.8-2.4c-0.3-0.5-0.8-0.9-1.4-1.1
	c-0.7-0.2-1.3-0.5-1.9-1c-1.2-1-2.7-1.6-4-2.3c-0.5-0.3-1.1-0.5-1.6-0.9c-0.6-0.4-1.1-0.9-1.9-0.9c-1.1-0.9-2.6-1.1-3.8-2
	c-0.9-0.7-0.9-1.8,0-2.5c0.2-0.2,0.4-0.3,0.7-0.4c1.2-0.5,2.4-1,3.5-1.5c0.3-0.6,0.5-1.2-0.1-1.7c-0.5-0.4-0.6-0.8-0.6-1.4
	c0-0.5,0-0.9,0-1.4c0-0.7-0.2-1.3-0.7-1.8c-1.6-1.7-2.4-4.1-4.1-5.7c-0.5-1.6-1.8-2.7-2.6-4.1c-0.5-0.9-0.6-0.9-0.5-2.4
	c0.8-0.5,1.8-1.1,2.7-1.7c1-0.7,2-1.3,3.1-1.9c1-0.5,2-1.2,3-1.7c1.3-0.6,2.4-1.5,3.7-2.3c1.3-0.8,2.6-1.4,3.7-2.5
	c1.5-0.4,2.7-1.3,3.9-2.1c2.4-1.4,4.7-2.8,7-4.2c1.6-1,3.2-2,4.8-3.1c-0.2-0.5-0.2-1.2-0.5-1.5c-1.2-1.1-1.8-2.7-2.7-4.1
	c-1.1-1.5-2.1-3-3.1-4.5c-0.4-0.6-1-1-1.1-1.8c-0.1-0.7-0.9-1.2-1.5-1.4c-0.8-0.3-1.4-1-2.2-1.2c-0.8-0.2-1.4-0.8-2.1-1.1
	c-0.7-0.3-1.3-0.6-2-0.8c-1.6-0.5-2.8-1.7-4.2-2.4c-1.5-0.7-3-1.3-4.4-2.2c-0.7-0.4-1.4-0.7-2-0.9c-0.9-0.8-1.2-1.8-1.2-2.9
	c-0.1-2.2-0.2-4.3-0.4-6.5c0-0.7-0.1-1.4-0.4-2.1c-0.2-0.6-0.3-1.3-0.3-1.9c0-3.6-0.5-7.1-1-10.6c-0.2-1.3-0.2-2.6-0.2-3.9
	c0-1.9-0.9-3.1-2.5-3.9c-1.3-0.7-2.5-1.4-3.8-2c-1.6-0.7-3.2-1.5-4.6-2.5c-0.7-0.4-1.4-0.7-2.1-1c-1.4-0.7-2.8-1.3-4.5-2.1
	c-0.4-0.5-0.4-1.2,0-2.1c1.3-0.7,2.5-1.5,3.9-2.2c0.9-0.5,1.6-1.3,2.7-1.4c0.8-0.9,1.9-1.3,3-1.9c1.1-0.6,2.2-1.2,3.2-1.8
	c0.5-0.3,1.1-0.5,1.6-0.8c1.9-1.3,4.1-2.2,6.1-3.5c0.4-0.6,0.3-1.2,0.3-1.9c-0.1-2.7-0.2-5.4-0.3-8.1c0-0.5,0-0.9,0-1.4
	c0.1-0.7,0.3-1.4,0.9-1.9c0.8-0.7,1.6-1.6,2.4-2.3c3.2-3.2,6.5-6.4,9.7-9.7c1.8-1.8,3.5-3.7,5.3-5.4c0.7-0.7,1.1-1.5,1-2.5
	c-0.2-2.6-0.4-5.2-0.6-7.9c-0.1-1.4-0.6-2.6-1.6-3.5c-0.9-0.8-1.2-1.7-1.1-2.8c0.1-1.5,0.3-3,0.5-4.5c0-0.3,0.2-0.6,0.3-0.9
	c0.2-0.5,0.3-1,0.4-1.5c0.2-1.2,0.3-2.4,0.8-3.7c0.5-1.3,0.6-2.8,0.9-4.2c0.2-1.4,0.5-2.7,0.9-4c0.3-0.9,0.2-1.9,0.2-2.9
	c0-0.2-0.2-0.5-0.3-0.7c-2.3-2.2-4-5-6.4-7.1c-0.7-0.6-0.9-1.2-1.1-2c-0.2-1.1,0-2.1,0.3-3.1c0.2-0.8,0.8-1.4,1.6-1.6
	c1.7-0.6,3.5-1.2,5.1-1.9c1.6,0,2.9-0.8,4.3-1.3c1-0.4,2.1-0.7,3.1-1c1.6-0.6,3.1-1.4,3.3-3.5c0-0.3,0.2-0.6,0.3-0.9
	c0.3-2.3,1.8-4,3.6-5.2c1.2-0.8,2.1-1.9,3.2-2.8c-0.4-0.9-0.9-1.4-1.8-1.5c-0.7,0-1.4-0.3-2-0.6c-0.4-0.2-0.9-0.2-1.3-0.4
	c-0.6-0.2-1.1-0.4-1.7-0.6c-0.4-0.1-0.7-0.3-1.1-0.4c-1.8-0.3-3.4-0.8-5.1-1.5c-0.5-0.2-1-0.3-1.5-0.4c-0.5-0.2-1-0.3-1.5-0.5
	c-0.6-0.2-1.1-0.3-1.7-0.5c-0.1,0-0.3,0-0.4-0.1c-0.8-0.3-1.7-0.8-2.5-1c-0.9-0.2-1.8-0.1-2.6-0.8c-0.4-0.4-1.2-0.3-1.9-0.4
	c-1-0.1-2.1,0-3-0.7c-0.2-0.1-0.5-0.1-0.8-0.1c-1.3-0.1-2.6-0.4-3.8-0.9c-0.4-0.2-0.9-0.2-1.3-0.3c-0.7-0.1-1.5,0-2.1-0.5
	c-2.3-0.1-4.3-1.2-6.5-1.4c-0.3,0-0.7,0-1-0.1c-1.3-0.7-2.8-0.8-4.2-0.9c-0.2,0-0.4-0.2-0.5-0.2c-0.6-0.9-0.3-1.8-0.1-2.7
	c0.1-0.4,0.4-0.7,0.4-1.1c0.1-1.1,0.2-2.2,1-3.1c0.2-0.2,0.2-0.5,0.2-0.8c0-1,0.2-2,0.8-2.8c0-1.8,1.1-3.3,1.4-5.1
	c0.2-1.2,0.6-2.4,1.1-3.5c0.3-0.8,0.7-1.6,0.7-2.4c0-0.4,0.2-0.8,0.4-1.1c0.6-0.7,0.4-1.6,0.6-2.4c0.2-0.7,0.7-1.4,0.9-2.1
	c0.1-0.3,0.1-0.6,0.1-1c0-0.6,0.2-1.1,0.5-1.7c0.5-0.8,0.7-1.8,0.2-3c-3.1-0.7-6.2-1.3-9.3-2.1c-1.2-0.3-2.4-0.6-3.6-0.7
	c-0.5,0-0.9-0.2-1.3-0.3c-1.2-0.4-2.4-0.8-3.6-0.8c-0.3,0-0.6,0-0.8-0.2c-1.1-0.7-2.4-0.8-3.6-0.9c-1.1-0.1-1.9-0.5-2.6-1.2
	c-0.5-0.6-1.1-1.1-1.5-1.8c-0.8-1.4-2-2.6-3.1-3.8c-0.5-0.5-1-1-1.4-1.6c-0.9-1.5-2.1-2.8-3.2-4.2c-0.9-1.1-1.1-2.1-0.3-3.2
	c0.7-1.1,1.6-2.1,1.9-3.4c0-0.1,0.1-0.2,0.2-0.3c1-1,1.6-2.2,2.2-3.4c0.5-0.9,1.3-1.5,1.6-2.6c0.2-0.9,1.2-1.7,1.7-2.6
	c0.5-0.9,1-1.8,1.5-2.8c0.2-0.3,0.4-0.7,0.7-1c0.8-1,1.6-2,2-3.3c0.1-0.3,0.4-0.5,0.6-0.8c0.4-0.8,1.2-1.4,1.4-2.3
	c0.1-0.3,0.4-0.5,0.6-0.8c0.6-0.8,1.1-1.6,1.4-2.6c0.2-0.8,0.1-1.5-0.3-2.1c-0.3-0.5-0.8-0.9-1.1-1.3c-1.5-1.8-3.1-3.5-4.5-5.4
	c-0.7-1-1.6-1.9-2.3-2.9c-0.3-0.4-0.6-0.8-1-1.2c-0.6-0.7-0.6-0.7-0.5-2.1c1.7-1.7,3.5-3.4,5.3-5.1c1.7-1.6,3.3-3.1,5.2-4.5
	c1.5-1.2,2.8-2.7,4.2-4c2.4-2.4,4.8-4.8,7.5-6.8c0.9-0.7,1.6-1.5,2.4-2.2c2.3-2.2,4.6-4.4,6.9-6.6c0.5-0.5,1.2-0.9,1.7-1.3
	c0.9-0.8,1.7-1.7,2.5-2.5c0.4-0.4,0.7-0.9,1.2-1c0.7-0.3,1.1-0.9,1.7-1.3c1.4-1.1,1.6-2.3,0.9-4c-0.3-0.7-0.5-1.5-0.7-2.2
	c-0.2-0.9-0.2-1.7,0.4-2.4c1-0.4,2.2-0.2,3.1-1c0.2-0.2,0.6-0.1,1-0.1c1.1-0.1,2.2-0.2,3.2-0.8c0.4-0.3,1-0.3,1.5-0.4
	c0.8-0.1,1.5-0.3,2.3-0.5c2.1-0.6,4.2-1.1,6.3-1.6c0.8-0.2,1.4-0.6,1.3-1.4c0-0.7-0.1-1.5-0.5-2.1c-0.7-1.2-0.7-2.5-0.5-3.8
	c0.6-0.6,1.7-0.5,2.1-1.4c0-0.1,0.2-0.1,0.3-0.2c1.6-0.1,3-0.9,4.4-1.6c1.4-0.7,2.9-1.1,4.3-2c0.5-0.3,1.1-0.3,1.7-0.5
	c1.1-0.3,1.9-0.8,2.2-1.9c0.3-0.9,0.7-1.7,0.9-2.6c0.1-0.7,0.6-1.3,0.9-2c-0.7-1-1.3-2.1-2.2-2.8c-1.2-1-2.4-2.1-3.9-2.5
	c-1.7-0.5-3.3-1.2-4.8-2.4c-0.3-2.2-1.1-4.4-1-6.7c0-1-0.3-1.8-1.2-2.4c-1.2-0.8-2.3-1.7-3.5-2.5c-2.1-1.4-4.3-2.7-6.4-4
	c-0.7-0.4-1.3-0.9-1.9-1.4c-0.4-0.3-0.8-0.6-1.3-0.9c-1.3-0.6-2-1.6-1.9-3.1c0.1-3,0.1-6.1,0.2-9.1c0.2-3.7,0.4-7.4,0.7-11
	c0.1-1.7,0.2-3.4,0.3-5.1c0.1-1-0.4-1.9-1.1-2.4c-0.6-0.4-1.1-1.1-1.9-1.3c-0.5-0.1-1-0.6-1.5-0.9c-2.4-1.4-4.5-3.1-6.8-4.6
	c-0.9-0.5-1.7-1.2-2.7-1.5c-1-0.4-1.8-1.9-1.4-2.9c0.4-1.1,0.5-2.3,0.7-3.5c0-0.3,0-0.6,0.1-0.8c0.6-0.8,0.6-1.8,0.9-2.8
	c0.4-1.4,0.9-2.8,1.4-4.3c0.2-0.5,0.2-1,0.4-1.5c0.3-1.3,1-1.9,2.3-2c1.7-0.1,3.4-0.2,5.1-0.2c1.8,0,3.7,0,5.5,0
	c0.5,0,1-0.1,1.6-0.1c1.2-1.3,2-2.8,2.5-4.5c0.1-0.4,0.3-0.7,0.5-1c0.1-0.2,0.3-0.3,0.4-0.4c0.4-2.1,1.8-3.7,2.5-5.7
	c0.6-1.5,1.1-3.1,2.5-4.1c0.1-0.1,0.2-0.2,0.2-0.3c0.1-1.2,1-1.9,1.4-3c0.4-1,1-1.9,1.6-2.9c0.1-0.2,0.3-0.4,0.5-0.6
	c1.7-0.9,2.8-2.5,4.3-3.7c0.8-0.6,1.4-1.3,2.2-1.8c1.7-1.2,3.2-2.6,4.7-4c1.5-1.5,3.3-2.6,4.9-4.1c0.2-1.2,0.1-2.3-0.6-3.6
	c-0.8-1.6-1.6-3.3-2.1-5.1c-0.2-0.7-0.7-1.4-1-2.1c-0.3-0.7,0-1.6-0.8-2.1c0,0-0.1-0.1-0.1-0.2c-0.1-1.3-0.8-2.4-1.3-3.6
	c-0.3-0.7-0.4-1.4-0.8-2c-1-1.3-0.9-3-1.9-4.3c-0.3-0.4-0.1-1.1-0.4-1.5c-0.5-0.9-1-1.7-1-2.7c0-0.2-0.3-0.4-0.4-0.6
	c-0.2-0.3-0.4-0.6-0.5-0.9c-0.2-1.9-1.5-3.3-2-5.1c-0.2-0.7-0.7-1.3-1.1-1.8c-1.2-1.4-2.5-2.8-3.7-4.2c-0.8-0.9-1.5-2-2.3-2.9
	c-0.6-0.7-1.2-1.5-1.9-2.2c-1-0.9-1.9-2-2.7-3.1c-1-1.4-2-2.7-3.2-3.9c-1.5-1.6-2.8-3.3-4.1-5.1c-0.7-1-1.6-1.9-2.5-2.7
	c-0.5-0.4-1-0.9-1.3-1.4c-1.2-2-2.8-3.7-4.3-5.4c-2.7-3-4.1-3.9-7.3-6.1c-0.6-0.4-1.1-1-1.7-1.5c-1.1-0.9-2.1-1.8-3.5-2.5
	c-1.1-0.6-2-1.6-3.1-2.4c-2.2-1.8-4.4-3.5-6.7-5.3c-0.1-0.1-0.4-0.2-0.5-0.3c-1.2-0.7-1.2-0.9-0.6-2.3c0.1-0.3,0.3-0.6,0.3-0.9
	c0.1-0.6,0.2-1.1,0.7-1.6c0.2-0.2,0.3-0.6,0.3-0.9c0.1-0.5,0.2-1,0.6-1.4c0.3-0.3,0.3-0.7,0.5-1c0.1-0.2,0.1-0.6,0.2-0.7
	c1.1-1.2,1.4-3,2.3-4.3c0.6-0.9,0.7-2.1,1.3-3c0.3-0.5,0.2-1.2-0.3-1.8c-0.9-1.3-1.6-2.7-2.5-4c-0.7-0.9-1.1-1.8-1.7-2.8
	c-0.6-0.9-1-1.9-1.6-2.9c-0.7-1.1-1.4-2.2-2.2-3.2c-0.5-0.7-0.5-1.6-1.3-2.1c-0.2-0.1-0.2-0.5-0.2-0.7c-0.1-1.5-0.5-3.1,0.7-4.5
	c0.2-0.2,0.2-0.5,0.2-0.8c0.1-0.7,0.2-1.4,0.7-2c0.3-0.4,0.3-1,0.4-1.5c0.1-0.5,0.3-1,0.5-1.5c0.5-1.3,1.4-2.4,1.4-3.8
	c0.6-1,0.9-2,1-3.1c0-0.3,0.3-0.6,0.5-0.9c0.2-0.3,0.4-0.7,0.4-1.1c0.2-0.8,0-1.7,0.9-2.3c0.1-0.1,0.2-0.4,0.2-0.5
	c0.2-2.1,1.3-3.8,1.9-5.8c0.3-1.1,1.2-2.1,1-3.3c0.7-1.1,1.1-2.4,1.3-3.7c0.8-0.7,0.8-1.6,0.8-2.5c0-0.1,0-0.3,0.1-0.4
	c1.3-1.4,1-3.5,2.1-5c0.8-1.2,0.9-2.6,0.8-4.1c-2.3-1.8-4.6-3.7-6.8-5.4c-0.3-1.2-0.1-2.1,0.4-3c0.5-0.9,0.6-1.9,0.6-2.9
	c0-2.4,0-4.9,0.1-7.3c0-0.6,0.2-1.3,0.2-1.9c0.1-1,0.1-2,0.2-2.9c0-0.9-0.1-1.7,0.5-2.4c2.1-1,4.2-2.1,6.3-2.9
	c1.2-0.5,2.3-1.1,3.6-1.5c0.4-0.1,0.7-0.3,1-0.5c0.2-0.1,0.3-0.3,0.5-0.3c2.1-0.5,3.8-2,5.8-2.7c1.4-0.5,2.5-1.5,4-1.6
	c0.9-1,2.3-0.8,3.3-1.6c1-0.7,2.2-1.1,3.3-1.6c1.2-0.5,2.4-1.1,3.6-1.6c0.4-0.2,0.8-0.5,1.2-0.7c0.3-0.2,0.6-0.3,0.9-0.4
	c0.6-0.1,1.1-0.3,1.6-0.7c0.3-0.3,0.8-0.3,1.3-0.5c1.9-0.6,2.8-1.7,2.9-3.7c0-0.8,0-1.6-0.1-2.4c-0.1-0.9-0.1-1.8,0.2-2.7
	c0.2-0.5,0.1-1.2,0.1-1.8c0-1.7,0-3.4,0-5.1c0-1,0.1-1.8,1.1-2.6c1-0.8,1.7-2,2.5-3c0.2-0.2,0.4-0.4,0.4-0.7c0.1-1.5,0.4-3-0.4-4.4
	c-0.7-1.3-1.1-2.8-2.1-4c-0.1-1.5-1.6-2.4-1.6-3.9c-0.8-1.4-1.5-2.8-2.4-4.4c0.4-0.6,0.7-1.3,1.2-1.9c3.4-3.7,6.8-7.5,10.3-11.2
	c2.5-2.7,4.9-5.3,7.4-8c0.8-0.8,1.6-1.6,2.4-2.5c1.1-1.2,1.1-2.7-0.1-3.9c-1.2-1.1-1.9-2.4-2.4-3.9c-0.3-1-1.1-1.7-1.3-2.8
	c-1-1-0.8-2.5-1.5-3.6c-0.3-0.4-0.2-1.1,0.4-1.6c0.4-0.3,0.8-0.7,1.1-1.1c0.6-0.7,0.6-1.4-0.1-2c-0.3-0.3-0.7-0.7-1.1-0.7
	c-1.3-0.2-2.1-1.2-3.3-1.5c-0.4-0.1-0.8-0.5-1.2-0.7c-1.5-0.7-3-1.5-4.4-2.6c-0.2-0.2-0.4-0.3-0.7-0.4c-2.3-0.7-4.2-2-6.3-3
	c-0.9-0.4-1.3-1.3-1.1-2.3c0.3-1.2,0.5-2.3,0.9-3.4c0.3-0.7,0.4-1.4,0.5-2.1c0.1-0.5,0-1.1,0.3-1.5c0.7-1.1,0.6-2.3,0.9-3.4
	c0.4-1.6,1-3.1,1.2-4.7c0.9-0.9,0.8-2,1-3.1c0.1-0.6,0.4-1.3,0.5-1.9c0.3-1.1,0.8-2.1,0.2-3.2c-2.1-1.4-4.4-2.3-6.4-3.9
	c-1.6-0.4-2.7-1.5-4.1-2.2c-1.1-0.6-2.1-1.4-3.2-1.9c-1.1-0.5-1.3-1.4-1.1-2.5c0-0.2,0.1-0.4,0.2-0.6c1.7-0.7,3.4-1.5,5.2-2.2
	c1.2-0.5,2.6-0.7,3.7-1.7c0.1-0.1,0.2-0.2,0.3-0.2c1.6,0,2.8-1.1,4.2-1.6c1.4-0.4,2.7-0.9,4-1.6c1.7-0.8,3.5-1.3,5.2-2.2
	c1.6-0.8,3.5-1,5.1-2c0.4-0.2,0.8-0.4,1.2-0.6c1.1-0.6,2.1-1.3,3.4-1.3c1-0.7,2.4-0.7,3.3-1.6c0.3-0.2,0.7-0.3,1.1-0.4
	c0.9-0.2,1.4-0.8,1.7-1.7c0.4-1.3,1-2.6,1.6-4c0.1-0.2,0.3-0.3,0.3-0.5c0-1.4,0.9-2.6,1.3-3.9c0.5-1.5,1.1-3.1,1.8-4.6
	c0.2-0.5,0.6-0.8,0.9-1.2c1.7-1.9,3.9-3.3,5.8-5c0.5-0.4,0.9-0.9,1.2-1.6c-1.1-0.5-1.9-1.3-3.1-1.4c-0.2,0-0.4-0.1-0.6-0.2
	c-1.3-1-2.8-1.5-4.4-2c-0.8-0.8-2.2-0.8-3.1-1.6c-0.3-0.2-0.7-0.4-1.1-0.5c-1.9-0.7-3.7-1.5-5.5-2.5c-0.8-0.4-1.8-0.4-2.5-1.1
	c-1.4,0-2.3-1.2-3.6-1.5c-0.5-0.1-1-0.7-1.5-0.8c-1.7-0.5-3.1-1.6-4.8-2c-0.8-0.9-2.2-0.8-3.1-1.5c-0.7-0.6-1.7-0.9-2.7-1.2
	c-0.9-0.2-1.7-0.6-2.5-1.1c-1.1-0.7-2.4-0.9-3.4-1.8c-0.2-0.2-0.5-0.1-0.8-0.2c-0.3-0.1-0.7-0.1-1-0.2c-2.3-1.3-4.7-2.2-7.1-3.4
	c-0.7-0.4-1.4-0.8-1.9-1.3c-1.6-1.6-3.3-3.2-5.1-4.6c-1.5-1.2-3-2.5-4.5-3.8c-1.5-1.2-2.9-2.6-4.3-4c-0.7-0.8-1.7-1-2.3-1.7
	c-0.6-0.7-1.4-1.4-2.1-2.1c-0.1-0.1-0.2-0.2-0.3-0.3c-1.8-1-3-2.7-4.3-4.3c-1.2-1.5-2.4-2.9-3.7-4.3c-0.7-0.8-1.4-1.5-2-2.4
	c-0.4-0.6-1-1.2-1.6-1.7c-0.7-0.6-1.2-1.4-1.3-2.3c0-0.7,0.1-1.3,0.8-1.7c0.7-0.4,1.4-0.9,2.1-1.4c1.7-1.2,3.3-2.6,5.2-3.5
	c0.6-0.3,1-0.8,1.6-1.1c1.5-1.2,3.3-2,4.6-3.5c0.4-0.5,1.1-0.7,1.6-1.1c1.3-0.8,2.5-1.5,3.8-2.3c0.4-0.2,0.9-0.5,1.1-0.8
	c0.6-0.9,1.5-1.3,2.3-1.8c2.3-1.5,4.6-3,6.9-4.5c0.4-0.3,0.7-0.7,1-1.1c-0.9-1.9-2.1-3.3-3.5-4.6c-2.3-2.2-4.2-4.7-6-7.2
	c-0.8-1-0.5-2.2,0.6-2.9c1.2-0.7,2.6-1.3,3.8-2.1c2.5-1.6,5.2-2.7,7.4-4.6c0.1-0.1,0.3-0.3,0.5-0.3c1.3-0.3,2.3-1.1,3.4-1.8
	c0.3-0.2,0.6-0.3,0.9-0.4c1.4-0.4,2.1-1.4,2.1-2.9c0-3.4,0.1-6.9,0-10.3c-0.1-2,0.5-3.7,1.8-5.3c0.8-1,1.4-2.2,2.1-3.2
	c0.2-0.3,0.4-0.8,0.7-0.9c1-0.6,1.2-1.7,1.8-2.5c0.6-0.7,0.1-1.7-0.8-1.8c-1-0.1-1.7-0.6-2.4-1.2c-0.9-0.6-1.9-1.1-2.9-1.6
	c-0.9-0.5-2-0.7-2.8-1.3c-2-1.3-4.4-2-6.4-3.4c-0.3-0.2-0.7-0.4-1-0.5c-0.7-0.1-1.2-0.6-1.6-1c-0.6-0.6-0.8-1.5-0.2-2.1
	c1-1,1.6-2.4,2.5-3.5c1.7-2,3.2-4.1,4.8-6.2c0.6-0.8,1.2-1.5,1.8-2.3c0.1-0.1,0.2-0.2,0.3-0.3c0.9-2.2,2.8-3.6,4.1-5.4
	c0.4-0.5,0.8-1,1.1-1.6c0.7-1.3,1.7-2.5,2.7-3.6c0.7-0.8,1.5-1.7,2.1-2.6c0.2-0.3,0.1-0.9,0.2-1.4c-0.6-0.3-1.2-0.6-1.8-0.9
	c-1.7-0.9-3.5-1.8-5.1-2.8c-0.4-0.2-0.7-0.5-1.2-0.6c-0.2,0-0.5,0-0.6-0.1c-0.7-1-2.1-1-3-1.7c-0.9-0.7-2.1-1.1-3.2-1.6
	c-1.2-0.5-2.3-1.5-3.6-1.7c-0.6-0.1-1-0.8-1.7-0.9c-0.6-0.1-1.2-0.2-1.7-0.5c-0.8-0.6-1.7-1-2.6-1.3c-0.7-0.3-1.3-0.6-2-0.8
	c-1.3-0.5-2.4-1.2-3.8-1.5c-0.9-0.2-1.7-0.8-2.6-1.2c-1.3-0.5-2.6-1.2-3.9-1.9c-0.6-0.9-0.6-1.8-0.5-2.8c0.2-1.4,0.2-2.9,0.3-4.3
	c0.1-0.7,0.1-1.5,0.4-2.1C69.8,290,70,289,70,288c0.1-1.6,0.2-3.2,0.2-4.7c0-0.7,0-1.4,0.5-2.1c0.2-0.4,0.3-0.9,0.3-1.3
	c0.2-2.6,0.5-5.1,1-7.6c0.2-0.8,0.3-1.7-0.2-2.6c-0.4-0.1-0.8-0.3-1.2-0.4c-0.7-0.1-1.2-0.4-1.8-0.7c-1.5-0.8-3.1-1.4-4.6-2.1
	c-1.2-0.6-2.5-0.7-3.5-1.6c-0.1-0.1-0.4-0.2-0.5-0.2c-1.7-0.1-3-1.2-4.5-1.8c-0.5-0.2-1.1-0.4-1.6-0.7c-0.5-0.2-0.9-0.6-1-1.1
	c-0.2-0.8-0.5-1.7-0.6-2.5c-0.2-2.4-0.4-4.9-0.6-7.3c-0.1-0.7-0.3-1.4-0.4-2.1c-0.1-0.5-0.2-1.1-0.1-1.6c0.2-1.2,0.5-2.3,0.5-3.5
	c0-0.7,0.7-1.1,1.3-1.4c1.6-0.8,3.1-1.7,4.6-2.6c0.9-0.5,2-0.5,2.8-1.4c0.2-0.2,0.7-0.2,1.1-0.2c2.1-0.1,4.2-0.1,6.3-0.2
	c0.8,0,1.7,0,2.5-0.4c0.5-0.2,1.2-0.2,1.7-0.2c2.6-0.1,5.1-0.1,7.7-0.1c2,0,4.1-0.1,6.1-0.2c0.5,0,1-0.2,1.5-0.4
	c1.1-0.6,2.2-1.2,3.3-1.8c0.7-0.4,1.4-0.6,2.1-1c0.7-0.4,1.3-0.9,2-1.2c0.3-0.2,0.7-0.3,1.1-0.3c1.4-0.3,2.9,0,4.3,0.1
	c0.2,0,0.5,0.2,0.7,0.3c0.6,0.2,1.2,0.5,1.8,0.6c0.8,0.2,1.5,0.3,2.2,0.7c0.5,0.3,1.1,0.3,1.7,0.3c0.8,0.1,1.5,0.3,2.3,0.6
	c1.3,0.5,2.6,0.9,3.9,1.3c0.7,0.2,1.4,0.5,2.1,0.7c0.4,0.1,0.7,0.1,1.4,0.1c-1.2-1.5-2.2-2.9-3.5-4c-1.1-0.9-2-1.9-3-2.8
	c-0.6-0.6-1.3-1.2-2.1-1.5c-1.1-0.5-1.9-1.4-3.1-1.6c-0.5-0.1-1-0.6-1.4-0.9c-0.4-0.3-0.9-0.6-1.3-0.8c-0.7-0.4-1.4-0.8-2.2-1.2
	c-1.5-0.7-3-1.5-4.4-2.4c-0.4-0.3-0.8-0.6-1.3-0.7c-1.1-0.2-1.8-1-2.5-1.7c-0.2-0.2-0.3-0.6-0.3-0.9c-0.1-0.8-0.1-1.6-0.1-2.4
	c0-1.5-0.1-3-0.4-4.5c-0.3-1.7-0.3-3.4-0.4-5.1c-0.1-2.1-0.2-4.2-0.3-6.3c0-0.3,0-0.7-0.1-1c-0.6-1.9-0.6-3.9-0.6-5.9
	c0-1.7-0.8-2.5-2.3-3.3c-1.7-0.8-3.7-1.2-5.1-2.7c-0.6-0.6-1.6-0.8-2.4-1.2c-0.6-0.3-1.1-0.7-1.7-1c-1.4-0.8-2.9-1.5-4.3-2.2
	c-0.5-1.8-0.4-2,0.9-2.8c0.8-0.5,1.6-0.9,2.5-1c1.1-0.1,1.5-0.7,1.4-1.7c-0.1-1.5-0.4-3-1.1-4.3c-0.3-0.5-0.8-0.9-1.1-1.4
	c-0.9-1.7-2.2-3.1-3.2-4.7c-1.1-1.6-2.1-3.3-3-5c-0.7-1.3-0.6-1.8,0.7-2.6c1.3-0.8,2.4-2,4-2.4c0.4-0.1,0.7-0.6,1.1-0.8
	c2.6-1.4,5.3-2.9,7.7-4.7c0.6-0.4,1.3-0.6,1.9-0.9c1.3-0.5,2.4-1.4,3.4-2.2c1.1-0.9,2.5-1.4,3.7-2.1c2.3-1.4,4.7-2.8,7.1-4.2
	c0.7-0.4,1.3-0.9,2-1.5c-0.1-0.4-0.1-1-0.4-1.2c-0.7-0.5-1-1.4-1.4-2.1c-0.7-1.1-1.5-2.1-2.1-3.2c-0.9-1.5-2-2.9-3-4.3
	c-0.2-0.2-0.3-0.4-0.4-0.7c-0.3-1-1.2-1.5-2.1-1.9c-1.9-0.9-3.7-2-5.6-2.7c-1.7-0.7-3.3-1.5-4.9-2.5s-3.3-1.6-4.7-2.7
	c-0.1-0.1-0.4-0.1-0.6-0.2c-1-0.2-1.5-0.9-1.4-1.8c0.2-1.7-0.7-3.2-0.7-4.9c0-1.6-0.1-3.3-0.2-4.9c0-0.2,0-0.4-0.1-0.6
	c-1-3-0.7-6.1-1-9.2c-0.1-0.7,0-1.5-0.1-2.2c-0.1-0.7-0.2-1.4-0.3-2.1c-0.1-0.8-0.2-1.6-0.3-2.3c-0.1-0.8-0.1-1.7-0.2-2.6
	c-0.9-0.3-1.6-0.7-2.4-1.2c1.3,0.2,2.7,0.4,4.1,0.8c10,2.6,16.5-1.4,20.2-10.6c1.8-4.4,4.8-4.5,8.9-3.4c10.6,3,10.5,2.9,11.2,14.1
	c0.1,1.8,1.8,4.4,3.4,5.1c12.6,4.8,22.9,12.6,30.5,23.8c1.7,2.4,3.2,3,6.2,1.7c7.6-3.4,15.3-6.5,23.1-9.2
	c9.8-3.4,16.1-11.5,24.2-17.3c13.7-9.8,24.4-22.5,33.9-36.7c4.6,2.1,8.7,4.3,13,5.8c1.9,0.6,4.9,0.7,6.2-0.4
	c9.8-8.5,19.9-8.8,31.4-3.1c7.7,3.8,16.2,5.8,24.2,8.9c3.3,1.3,5.8,1.2,7.5-2.1c1.8-3.3,4-3.9,7.8-2.8c3.6,1,7.6,0.7,11.4,0.5
	c3-0.1,4.4,1.2,5.6,3.8c4.7,10.6,9.7,21.2,14.4,31.8c1.4,3.2,3.1,4.5,6.7,4.5c5.3,0,10.9-1.2,15.5,3.5c1,1,4.5,0.2,6.4-0.7
	c11.6-5,11.5-5,20.7,3.6c3.9,3.7,7.9,7.1,11.7,10.9c2.3,2.3,4.3,3.5,7.1,0.6c1.1-1.1,2.8-1.9,4.4-2.3c2.7-0.7,5.5-1.1,8.3-1.6
	c0.2,0.5,0.5,1,0.7,1.5c2.6-5,5.3-9.9,7.7-15c1.4-3,2.9-4.3,6.5-3.1c5.5,1.8,11.3,2.8,16.8,4.5c3,0.9,4.3-0.1,5.5-2.4
	c1.6-3.1,3.3-6.2,5.2-9.1c0.7-1.1,2.1-1.9,3.1-2.8c0.8,1,1.8,1.9,2.3,3c4.1,9.8,8.1,19.7,12,29.6c1.5,3.8,3.4,6.7,7.6,7.7
	c6.9,1.5,12.4,5.2,16.7,11.9c5.4-11.9,11-22.7,15.3-33.9c7.6-20,21.7-34.6,37.3-48.3c3.3-2.9,4.7-2.1,6.9,1.1
	c6.2,9.2,12.6,18.3,19.3,27.9c4.4-3.7,8.6-7.1,13.4-11.1c3.4,5.7,6.6,10.9,9.5,16.2c1.5,2.8,3.3,4.4,6.6,3.9
	c7.8-1.2,14.3,1.6,20.4,7.2c3.6-6.9,6.8-13.1,10.5-20.1c9.5,7.2,18.5,14.1,28.3,21.5c0.4-0.9,0.8-1.8,1.2-2.7c0.6,0.3,1.3,0.7,1.9,1
	c0.7,0.4,1.6,0.4,2.3,1.1c1.1,1,1.2,2.3-0.2,2.8c-1.4,0.4-2.4,1.5-3.9,1.7c-0.2,0.7-0.5,1.3,0.2,1.9c0.3,0.2,0.4,0.7,0.5,1
	c0.1,0.2,0.1,0.4,0,0.6c-0.2,1.6,0.4,2.8,1.4,3.9c0.4,0.4,0.7,0.9,1,1.4c0.5,0.8,1,1.5,1.5,2.3c0.4,0.6,1,1.2,1.2,2
	c0.2,0.6,0.8,1.2,1.2,1.7c0.4,0.5,0.7,1.1,1.1,1.6c0.4,0.6,0.5,1.2,0.3,2c-1.6,1.1-3.3,2.3-5.2,3.2c-0.5,0.3-1,0.7-1.5,1
	c-2,1.2-4,2.4-6.1,3.6c-1.1,0.6-2.3,1.2-3.3,2.1c-0.1,0.1-0.2,0.2-0.3,0.2c-1.2,0.1-2,1-2.9,1.5c-1,0.5-1.8,1.3-2.8,1.8
	c-1.7,0.9-3.3,1.8-4.9,2.8c-1.7,1.1-3.5,2.2-5.3,3.3c0.3,0.8,0.5,1.5,1.1,2.1c0.7,0.7,1.1,1.6,1.6,2.5c1.2,2,2.5,3.8,3.8,5.7
	c0.4,0.5,0.8,1,1.1,1.6c0.3,0.6,0.8,1.2,1.3,1.4c0.8,0.3,1.4,0.9,2.2,1.2c1.9,0.7,3.6,1.9,5.5,2.4c0.2,0,0.4,0.1,0.5,0.2
	c1.5,1.6,3.8,2,5.5,3.3c0.7,0.5,1.6,0.4,2.3,1.1c1.1,0.1,1.6,0.9,2.3,1.8c0.1,2.4,0.2,4.9,0.3,7.4c0,0.9,0.1,1.7,0.4,2.5
	c0.2,0.7,0.3,1.4,0.4,2.1c0.1,1.4,0.1,2.8,0.2,4.1c0.1,1.2,0.2,2.5,0.5,3.7c0.3,1.4,0.3,2.9,0.4,4.3c0.1,1,0.2,2.1,0.3,3.1
	c0.1,1,0.5,1.9,1.5,2.4c0.8,0.5,1.5,1.2,2.3,1.5c1.9,0.6,3.5,1.7,5.2,2.6c0.7,0.4,1.6,0.5,2.1,1.3c2,0.5,3.6,1.9,5.5,2.4
	c1.1,0.3,1.4,1.8,0.5,2.5c-0.6,0.4-1.2,0.8-1.8,1.1c-0.8,0.5-1.7,0.8-2.4,1.3c-0.5,0.4-1,0.8-1.7,0.8c-0.2,0-0.4,0.1-0.5,0.2
	c-0.4,0.8-1.3,0.8-2,1.3c-1.5,1-3.1,2-4.8,2.5c-0.1,0-0.1,0.1-0.2,0.1c-2.1,1.6-4.6,2.6-7,4.2c0,0.6-0.1,1.3-0.1,2.1
	c0.1,2.6,0.2,5.1,0.3,7.7c0,0.3,0,0.7,0,1c0,1-0.2,1.8-1,2.4c-1,0.8-1.9,1.8-2.8,2.7c-2.5,2.5-4.9,5.1-7.4,7.5
	c-2.4,2.3-4.7,4.7-7.1,7.1c-0.8,0.8-1.2,1.7-1.1,2.8c0.3,2.2,0.2,4.3,0.4,6.5c0.1,1.1,0.4,2.2,0.7,3.3c0.1,0.4,0.5,0.7,0.9,1
	c1.1,1,1.4,2.3,1.3,3.7c-0.1,1.2-0.2,2.4-0.3,3.5c0,0.3,0,0.6-0.1,0.8c-0.7,1-0.6,2.1-0.9,3.2c-0.3,1-0.6,2-0.8,3
	c-0.2,1-0.1,2-0.6,2.9c-0.1,0.3-0.1,0.6-0.1,1c-0.2,1.1-0.4,2.2-0.7,3.3c-0.1,0.6-0.4,1.1-0.5,1.7c-0.1,0.6,0,1.3,0,2
	c1.5,1.7,3.1,3.3,4.5,5.1c0.7,0.9,1.5,1.7,2.3,2.4c0.8,0.7,1.1,1.6,1.1,2.6c0,0.6-0.1,1.2-0.1,1.8c0,1.5-1,2.3-2.2,2.6
	c-1.5,0.4-3,1-4.4,1.7c-0.2,0.1-0.4,0.2-0.6,0.2c-1.4-0.1-2.6,0.8-3.9,1.1c-0.3,0.1-0.6,0.3-0.9,0.4c-0.4,0.2-0.8,0.5-1.3,0.5
	c-1.2,0-2.1,0.7-3.1,1.2c-0.8,0.4-1.2,1.1-1.3,2.1c-0.1,0.5-0.2,1-0.3,1.5c-0.6,2.4-2,4-4.1,5.3c-0.2,0.1-0.5,0.3-0.6,0.4
	c-0.7,0.7-1.3,1.4-2,2.1c0.3,0.8,0.8,1.3,1.7,1.3c0.4,0,0.9,0.1,1.3,0.3c0.8,0.5,1.8,0.5,2.6,0.9c2.4,1,5,1.1,7.2,2.3
	c0.3,0.2,0.6,0.3,0.9,0.3c0.9,0.1,1.8,0.4,2.6,0.8c0.4,0.2,0.9,0.3,1.3,0.4c0.7,0.1,1.3,0.2,1.8,0.6c0.4,0.3,0.8,0.4,1.3,0.5
	c0.8,0.2,1.5,0.2,2.2,0.7c0.5,0.3,1.3,0.3,1.9,0.4c1,0.1,2,0.1,2.8,0.7c0.1,0.1,0.2,0.1,0.4,0.1c1.8,0.2,3.6,0.7,5.4,1.1
	c2.3,0.6,4.7,0.7,6.9,1.6c0.2,0.1,0.4,0.2,0.6,0.2c2.2-0.1,4.2,1.1,6.4,1.2c0.3,0,0.6,0.2,0.9,0.3c0.6,0.8,0.5,1.5,0.2,2.3
	c-0.4,0.9-0.7,1.8-0.7,2.8c0,0.3-0.1,0.6-0.2,0.7c-0.7,0.9-0.8,1.9-0.8,3c0,0.1,0,0.3-0.1,0.4c-1.2,1.3-0.7,3.3-1.7,4.7
	c0,1.7-0.9,3.1-1.4,4.7c-0.5,1.5-0.6,3.2-1.5,4.6c-0.2,0.3-0.2,0.8-0.2,1.1c0,0.3,0,0.6-0.1,0.8c-0.8,1.1-0.9,2.5-1.1,3.7
	c0,0.2-0.2,0.5-0.3,0.7c-0.6,0.9-0.6,1.8-0.4,2.9c1.7,0.2,3.2,1,4.9,1.3c1.9,0.3,3.7,0.7,5.5,1.3c0.5,0.2,1,0.2,1.6,0.2
	c0.6,0.1,1.3,0.2,1.9,0.3c1.4,0.4,2.7,0.9,4.2,0.9c0.2,0,0.4,0,0.6,0.1c1.3,0.8,2.7,0.9,4.2,1c0.6,0,1,0.2,1.4,0.6
	c0.7,0.8,1.6,1.4,2.2,2.3c0.9,1.5,2,2.7,3.3,3.9c0.6,0.5,1.1,1.1,1.5,1.8c0.9,1.5,2.1,2.9,3.3,4.2c0.8,0.9,0.8,2,0.1,3
	c-0.6,0.8-1.2,1.6-1.6,2.4c-0.3,0.8-0.8,1.5-1.3,2.2c-0.7,0.8-1,1.8-1.6,2.7c-1.7,2.5-3.1,5.1-4.6,7.7c-0.4,0.7-1.1,1.4-1.5,2.1
	c-1.3,2.5-2.9,4.7-4.3,7.1c-0.4,0.7-0.8,1.5-1.2,2.3c0.5,1.1,1.2,2,2,2.8c1.5,1.7,3.1,3.4,4.4,5.3c0.7,1,1.6,1.9,2.4,2.8
	c0.1,0.2,0.3,0.3,0.4,0.4c0.6,0.7,1.2,1.4,1.1,2.4c-0.1,0.9-0.9,1.2-1.4,1.8c-1.8,1.8-3.7,3.7-5.6,5.4c-1.1,1-2.2,1.8-3.3,2.8
	c-1.2,1-2.3,2.1-3.4,3.2c-2.5,2.5-5,4.9-7.7,7.1c-1.5,1.2-2.9,2.6-4.3,4c-2,1.9-4,3.9-6.1,5.7c-1.4,1.3-2.9,2.4-4.1,3.9
	c-0.2,0.2-0.3,0.4-0.6,0.5c-1.4,0.6-2.3,1.7-3.2,2.8c-0.2,1.1,0,2.2,0.5,3.2c0.4,0.9,0.6,1.9,0.6,2.9c0,0.4-0.2,0.7-0.3,1.2
	c-1.9,0.2-3.5,1.1-5.3,1.3c-1,0.1-2,0.7-3,0.9c-1,0.2-2.1,0.1-3.1,0.7c-0.3,0.2-0.6,0.2-0.9,0.3c-1.8,0.5-3.6,0.9-5.3,1.4
	c-0.9,0.2-1.2,0.6-1.2,1.5c0,0.7,0.1,1.4,0.5,2.1c0.6,1.1,0.7,2,0.3,3.7c-0.5,0.5-1.5,0.4-1.9,1.2c-0.1,0.1-0.3,0.2-0.5,0.3
	c-1.7,0.2-3.1,1.1-4.5,1.8c-1.4,0.7-3,1-4.3,2c-0.3,0.2-0.8,0.1-1.2,0.2c-1.3,0.3-2.3,0.9-2.7,2.2c-0.2,0.7-0.6,1.4-0.7,2.2
	c-0.1,0.7-0.6,1.3-0.9,2c1,2,2.5,3.5,4.4,4.6c0.7,0.4,1.3,0.8,2.1,1c1.5,0.4,2.9,1.1,4.3,2.2c0.4,2.2,1.1,4.5,1.2,6.9
	c0,1,0.4,1.8,1.2,2.4c0.7,0.6,1.3,1.3,2.2,1.5c0.6,0.2,1.1,0.7,1.6,1.1c2.8,1.8,5.7,3.3,8.2,5.5c0.2,0.2,0.6,0.3,0.9,0.5
	c1.6,0.7,2.2,1.6,2.1,3.2c-0.2,5.5-0.3,11.1-0.5,16.6c-0.1,1.6-0.4,3.1-0.5,4.7c-0.1,1.4-0.1,2.9-0.1,4.3c0,0.6,0.2,1.2,0.7,1.6
	c0.8,0.6,1.4,1.5,2.5,1.7c0.3,0.1,0.6,0.5,0.9,0.7c2.5,1.2,4.5,3.1,6.8,4.5c1,0.6,2,1.4,3.2,1.9c0.3,0.2,0.6,0.5,0.8,0.8
	c0.3,0.4,0.4,1,0.5,1.3c-0.2,1.1-0.4,2.1-0.6,3.1c-0.2,1-0.2,2-0.8,2.8c-0.1,0.1-0.1,0.2-0.1,0.4c0.1,1.6-0.8,2.9-1.1,4.3
	c-0.2,1.2-0.8,2.3-1,3.6c-0.2,0.9-0.9,1.4-1.9,1.5c-1.8,0.1-3.7,0.2-5.5,0.2c-1.8,0-3.7,0-5.5,0c-0.9,0-1.7,0.3-2.2,1.1
	c-0.2,0.4-0.6,0.7-0.7,1.2c-0.4,0.9-1,1.7-1.1,2.7c-0.1,0.9-0.9,1.5-1.2,2.4c-0.2,0.7-0.6,1.4-1,2.1c-0.9,1.8-1.5,3.8-2.7,5.4
	c-0.3,0.5-0.8,0.9-1.1,1.4c-0.2,0.5-0.4,1.1-0.8,1.6c-0.2,0.2-0.3,0.6-0.4,0.9c-0.4,1.3-1.4,2.4-2,3.6c-0.1,0.2-0.2,0.3-0.4,0.4
	c-2.1,1.2-3.5,3.1-5.3,4.5c-0.9,0.7-1.9,1.4-2.8,2.1c-1,0.8-1.9,1.8-2.8,2.6c-1.5,1.3-3,2.6-4.6,3.8c-0.6,0.4-0.8,0.9-0.8,1.5
	c0.1,0.7,0.1,1.5,0.4,2.1c0.6,1,0.9,2,1.3,3c0.5,1,1.2,1.9,1.2,3.1c0.8,0.8,0.9,1.9,1.1,2.9c0,0.2,0.3,0.4,0.4,0.6
	c0.1,0.2,0.3,0.3,0.3,0.5c0,1.4,0.8,2.5,1.3,3.6c0.3,0.7,0.5,1.5,0.9,2.2c0.8,1.2,0.8,2.8,1.8,3.9c0.1,0.1,0.1,0.4,0.1,0.6
	c0,0.7,0.2,1.3,0.7,1.8c0.1,0.1,0.3,0.3,0.3,0.5c-0.1,1.4,1.1,2.3,1.3,3.7c0,0.4,0.3,0.8,0.5,1.3c0.4,1,0.8,1.9,1.2,2.9
	c0.2,0.4,0.3,0.7,0.6,1c1.3,1.6,2.6,3.1,3.8,4.6c0.9,1.1,2,2.2,2.8,3.5c0.6,0.9,1.3,1.6,2,2.4c1.3,1.3,2.3,2.8,3.4,4.2
	c1,1.3,2.1,2.4,3.2,3.6c0.9,1,1.6,2.2,2.5,3.2c1.1,1.3,2.1,2.6,3.3,3.7c0.9,0.8,1.6,1.9,2.3,2.9c1.1,1.6,2.6,3,3.8,4.6
	c1.3,1.6,3.1,2.6,4.4,4.1c2.3,1.1,3.9,3.2,6,4.6c2.6,1.7,4.9,3.7,7.5,5.6c1.6,1.1,3,2.5,4.6,3.5c0.7,0.4,0.7,0.9,0.4,1.7
	c-0.2,0.4-0.3,0.8-0.5,1.3c-0.2,0.5-0.4,1-0.6,1.4c-0.1,0.2-0.4,0.4-0.4,0.6c-0.2,1.5-1.1,2.7-1.8,4c-0.7,1.3-1,2.7-1.9,3.9
	c-0.2,0.2-0.2,0.5-0.3,0.7c-0.1,0.7-0.3,1.3-0.7,1.8c-0.6,0.8-0.6,1.6,0.1,2.5c0.9,1.2,1.5,2.6,2.4,3.8c1,1.4,1.7,2.9,2.5,4.3
	c0.9,1.4,1.6,2.9,2.6,4.1c0.6,0.8,0.9,1.9,1.6,2.6c0.3,0.4,0.4,1.1,0.4,1.7c0,1.2,0.2,2.4-0.8,3.3c-0.2,0.2-0.3,0.5-0.3,0.7
	c0,1.2-0.7,2.1-1,3.1c-0.3,1.1-0.5,2.2-1.1,3.2c-0.4,0.7-0.6,1.4-0.8,2.2c-0.4,1.4-1.3,2.7-1.3,4.3c-0.7,0.6-0.6,1.5-0.9,2.3
	c-0.2,0.7-0.7,1.2-0.9,1.9c-0.2,0.6-0.1,1.4-0.4,1.9c-0.7,1.2-1,2.6-1.5,3.8c-0.5,1.1-1,2.3-1.2,3.5c0,0.2-0.1,0.6-0.3,0.7
	c-0.5,0.4-0.5,0.9-0.5,1.4c-0.1,0.7-0.1,1.4-0.7,2c-0.1,0.1-0.2,0.2-0.2,0.3c-0.1,1.3-0.8,2.5-1.1,3.7c-0.2,1.1-0.7,2-1.2,2.9
	c-0.8,1.4-1,3-0.8,4.6c2.2,1.8,4.5,3.6,6.7,5.3c0.1,1.2,0.1,2.1-0.4,3c-0.6,0.9-0.5,2-0.6,3.1c-0.1,3-0.3,6-0.4,9.1
	c0,1.1,0,2.1-0.1,3.2c0,0.5-0.1,1-0.3,1.5c-0.1,0.4-0.5,0.8-0.9,1c-2,0.9-4,1.6-5.9,2.7c-1.3,0.1-2.2,1-3.4,1.4
	c-0.6,0.2-1.1,0.7-1.7,0.9c-0.6,0.2-1.2,0.5-1.8,0.8c-1.5,0.8-3,1.6-4.6,2.2c-1,0.4-1.9,1.1-3.1,1.3c-0.7,0.1-1.2,0.9-2.1,1
	c-0.8,0.1-1.6,0.6-2.3,0.9c-0.7,0.3-1.4,0.7-2.1,1.1c-1.5,0.7-2.9,1.5-4.4,2c-0.7,0.8-1.9,0.9-2.7,1.4c-0.5,0.3-0.9,0.5-1.4,0.6
	c-0.9,0.1-1.6,0.7-2.2,1.3c-0.6,0.5-1,1.3-1,2.3c0,3.4-0.1,6.8-0.1,10.3c0,0.9,0,1.7-0.1,2.6c-0.1,0.7-0.4,1.3-0.9,1.9
	c-0.9,0.9-1.7,2-2.5,3c-0.4,0.5-0.6,1.1-0.6,1.8c0,1.4,0,2.7,0.8,4c0.5,0.7,1,1.5,1.1,2.5c1,0.7,0.7,2.1,1.7,2.8
	c0.1,0.1,0.3,0.3,0.3,0.5c0.1,1,0.9,1.8,1.1,2.7c0.2,0.9,0.8,1.6,1.2,2.4c0.3,0.5,0.3,1,0,1.5c-0.3,0.4-0.6,0.8-1,1.2
	c-1.6,1.7-3.1,3.5-4.7,5.2c-2.3,2.5-4.6,4.9-6.9,7.4c-2.2,2.4-4.4,4.9-6.6,7.4c-0.4,0.5-0.9,1-1.4,1.4c-0.6,0.5-1,1.1-1,1.8
	c0,0.9,0,1.8,0.9,2.5c1,0.7,1.5,1.8,2,2.9c0.6,1.5,1.3,3,2.2,4.3c0.2,0.3,0.2,0.6,0.3,0.9c0.2,0.5,0.3,1,0.5,1.5
	c0.4,0.9,0.4,1.8-0.4,2.5c-0.3,0.3-0.6,0.5-0.8,0.8c-0.6,0.7-0.6,1.4,0.1,2c0.4,0.4,0.9,0.8,1.5,0.8c0.1,0,0.3,0,0.4,0.1
	c0.5,0.3,0.9,0.7,1.4,0.9c0.5,0.2,1,0.2,1.4,0.7c0.2,0.3,0.7,0.4,1,0.5c0.8,0.4,1.6,0.6,2.2,1.3c0.5,0.5,1.5,0.4,2,1.2
	c0.1,0.2,0.4,0.3,0.7,0.4c2.1,0.8,4.2,1.8,6.2,2.9c0.3,0.2,0.6,0.3,0.8,0.6c0.7,0.6,0.8,1.3,0.6,2.1c-0.7,2-1.3,4-1.6,6.1
	c-0.1,0.8-0.6,1.4-0.8,2.2c-0.2,0.8-0.1,1.6-0.2,2.4c0,0.3-0.1,0.5-0.3,0.7c-0.5,0.7-0.7,1.6-0.8,2.4c-0.1,0.6-0.1,1.2-0.6,1.6
	c0,0-0.1,0.1-0.1,0.2c-0.5,2-1,4.1-1.4,6.1c-0.1,0.4,0.1,0.9,0.1,1.3c2.2,1.3,4.2,2.8,6.4,3.9c1.5,0.7,2.9,1.8,4.4,2.5
	c1.1,0.5,2,1.2,3,1.8c0.9,0.5,1.2,1.2,1,2.1c0,0.3-0.1,0.5-0.1,0.8c-1.8,0.7-3.4,1.8-5.3,2.2c-0.3,0.1-0.5,0.1-0.7,0.3
	c-0.7,0.6-1.6,0.6-2.3,1c-0.8,0.5-1.5,0.6-2.3,0.9c-1,0.3-2,0.9-3,1.4c-1.3,0.5-2.6,0.9-3.8,1.5c-1.2,0.6-2.5,0.9-3.7,1.6
	c-0.3,0.2-0.6,0.3-0.9,0.3c-0.6,0.1-1.2,0.2-1.6,0.7c-0.1,0.1-0.3,0.3-0.5,0.3c-1.4,0-2.4,1-3.7,1.3c-0.3,0.1-0.6,0.3-0.9,0.4
	c-1.2,0.7-2.3,1.4-3.8,1.5c-1.1,0.1-2.1,0.8-3,1.3c-0.5,0.3-0.9,0.5-1.4,0.6c-0.8,0.2-1.4,0.7-1.5,1.6c-0.1,0.6-0.3,1.1-0.7,1.6
	c-0.2,0.2-0.3,0.6-0.4,0.9c-0.1,0.7-0.3,1.3-0.7,1.8c-0.2,0.2-0.3,0.6-0.4,0.9c-0.7,2.7-1.7,5.2-2.8,7.7c-0.2,0.4-0.4,0.7-0.6,1
	c-1.2,1.2-2.4,2.4-3.7,3.4c-1,0.7-1.8,1.4-2.7,2.2c-0.3,0.3-0.5,0.7-0.9,1.2c0.7,0.4,1.4,0.9,2.1,1.2c1.1,0.5,2.4,0.8,3.4,1.4
	c1.2,0.8,2.6,0.7,3.6,1.8c1.7,0.4,3,1.4,4.6,2c1.2,0.4,2.2,1,3.4,1.5c0.4,0.2,0.8,0.5,1.2,0.6c0.6,0.2,1.1,0.3,1.6,0.7
	c0.2,0.2,0.6,0.2,0.9,0.3c0.3,0.1,0.7,0.1,0.9,0.2c1.7,1.2,3.7,1.8,5.6,2.7c1.9,0.9,3.9,1.7,5.8,2.7c1.1,0.6,2.4,1,3.6,1.5
	c0.3,0.1,0.7,0.2,0.9,0.4c1.2,1,2.8,1.1,3.9,2.2c0.2,0.2,0.5,0.2,0.7,0.2c0.3,0.1,0.8,0,1,0.2c1,0.9,2.4,1,3.5,1.7
	c1.3,0.8,2.7,1.3,4.1,1.9c0.5,0.2,0.9,0.5,1.3,0.9c0.7,0.7,1.5,1.5,2.3,2.2c2.2,1.9,4.4,3.9,6.8,5.6c0.6,0.4,1.1,1,1.6,1.5
	c1.4,1.3,2.7,2.6,4.1,3.9c0.2,0.2,0.6,0.3,0.8,0.5c0.6,0.5,1.2,1,1.7,1.6c0.7,0.6,1.3,1.4,2,1.8c1.3,0.8,2.3,2,3.2,3.1
	c1.5,1.9,2.9,3.9,4.7,5.4c0.6,0.5,0.9,1.2,1.4,1.9c0.5,0.6,0.9,1.3,1.5,1.8c1.4,1,1.7,2.2,1.3,3.8c-1,0.7-2,1.4-3,2.1
	c-1.7,1.1-3.4,2.2-5,3.4c-1.2,0.8-2.6,1.5-3.7,2.5c-2.4,2.1-5,3.7-7.7,5.3c-0.4,0.2-0.9,0.4-1.1,0.8c-0.6,0.8-1.4,1.2-2.1,1.7
	c-2.4,1.6-4.8,3.1-7.2,4.7c-0.8,0.5-0.9,1-0.4,2c0.7,1.3,1.6,2.4,2.7,3.4c1.2,1.2,2.4,2.4,3.4,3.8c0.9,1.3,2,2.5,2.9,3.7
	c0.8,1.1,0.6,2.2-0.5,2.8c-1.3,0.8-2.7,1.4-3.9,2.2c-2.4,1.6-5.2,2.6-7.4,4.7c-0.1,0.1-0.2,0.2-0.3,0.2c-1.9,0.3-3.1,1.9-4.9,2.4
	c-1.1,0.4-1.7,1.4-1.6,2.6c0,3.3-0.1,6.6,0,9.9c0.1,2.2-0.5,4-1.8,5.7c-0.6,0.8-1.2,1.7-1.8,2.6c-0.5,0.9-1,1.7-1.7,2.3
	c-0.6,0.6-1,1.4-1.4,2.1c-0.2,0.4,0,1.2,0.5,1.3c1.5,0.4,2.6,1.4,4,2c1.6,0.8,3.2,1.4,4.7,2.3c2.1,1.3,4.5,2.1,6.6,3.5
	c0.9,0.6,2.1,0.7,2.8,1.8c0.3,0.8,0.1,1.6-0.6,2.2c-0.5,0.5-1,1-1.2,1.8c0,0.1-0.1,0.3-0.2,0.4c-1.2,0.9-1.8,2.4-2.8,3.5
	c-0.9,1-1.6,2-2.4,3.1c-0.7,0.9-1.4,1.7-2,2.6c-1.5,2.3-3.5,4.2-5.1,6.4c-0.9,1.2-1.5,2.6-2.6,3.7c-0.8,0.9-1.7,1.8-2.4,2.8
	c-0.4,0.6-0.5,0.6-0.5,1.9c0.4,0.2,0.8,0.5,1.3,0.7c2,1,4,1.9,5.8,3.2c0.7,0.5,1.7,0.3,2.2,1.1c1.3,0.2,2.3,1.1,3.6,1.6
	c1.4,0.5,2.7,1.4,4,2.1c0.3,0.2,0.7,0.4,1,0.5c0.5,0.1,0.9,0.2,1.2,0.6c0.2,0.2,0.4,0.3,0.7,0.3c1.6,0.2,2.8,1.3,4.3,1.8
	c1.5,0.6,3,1,4.3,1.9c0.2,0.1,0.4,0.2,0.5,0.2c1.8,0.3,3.3,1.2,4.8,2c0.7,0.3,1.5,0.4,2.2,0.9c0.5,0.3,0.9,0.6,1.2,1.2
	c0.3,0.6,0.5,1.1,0.3,1.7c-0.5,1.8-0.5,3.6-0.6,5.5c0,0.5-0.1,1-0.3,1.3c-0.4,0.8-0.4,1.6-0.5,2.5c-0.1,1.8-0.3,3.7-0.4,5.5
	c0,0.3,0,0.7-0.1,1c-0.7,1.3-0.6,2.7-0.7,4.1c0,1.9-0.7,3.7-0.8,5.6c-0.1,0.9-0.3,1.8,0.3,2.8c1.4,0.1,2.6,0.8,3.9,1.5
	c1.7,0.8,3.5,1.4,5.1,2.4c1.4,0.1,2.4,1.1,3.8,1.3c1,0.1,2,0.9,3,1.4c0.5,0.3,1.1,0.5,1.6,0.7c0.8,0.2,1.1,0.8,1.3,1.5
	c0.7,2.2,0.6,4.6,0.8,6.8c0.2,1.5,0.4,3,0.5,4.5c0.1,1,0,2,0,3c0,0.5-0.2,1-0.2,1.6c0,1.1-0.6,1.7-1.4,2.2c-1.2,0.7-2.4,1.2-3.6,2
	c-1.1,0.7-2.4,1-3.4,1.9c-0.3,0.3-0.9,0.3-1.3,0.3c-2.2,0.1-4.3,0.2-6.5,0.3c-0.5,0-1.1-0.1-1.6,0.1c-1.7,0.5-3.4,0.4-5.1,0.4
	c-3.8,0.1-7.6,0.2-11.4,0.3c-0.5,0-1,0.2-1.5,0.4c-1.1,0.6-2.1,1.3-3.3,1.8c-1.4,0.7-2.7,1.5-4.1,2.2c-0.3,0.2-0.7,0.3-1.1,0.3
	c-1.8,0.3-3.5,0.2-5.2-0.6c-0.3-0.2-0.7-0.3-1.1-0.3c-1-0.1-1.9-0.3-2.8-0.9c-0.2-0.1-0.5-0.2-0.8-0.2c-2.2,0.1-4-1.1-6-1.7
	c-1.1-0.3-2.2-0.8-3.4-1.1c-0.4-0.1-0.8,0-1.2,0c0,0.7,0.7,0.8,0.9,1.2c0.3,0.4,0.6,0.9,1,1.2c1.7,1.6,3.3,3.2,5,4.7
	c0.7,0.6,1.5,1,2.3,1.5c0.3,0.2,0.7,0.3,1,0.6c0.3,0.4,0.7,0.5,1.2,0.6c0.3,0,0.6,0.1,0.7,0.2c0.8,1,2.1,1.2,3.1,2
	c0.9,0.7,1.9,1.2,2.9,1.6c1.2,0.5,2.2,1.1,3.2,1.8c0.2,0.1,0.5,0.3,0.7,0.3c0.7,0.1,1.1,0.5,1.7,0.8c1.3,0.7,1.8,1.6,1.7,3
	c-0.1,1,0,2.1,0.1,3.2c0,0.7,0,1.3,0.2,2c0.4,1.4,0.4,2.9,0.5,4.3c0.1,2.4,0.1,4.7,0.3,7.1c0.1,1,0.4,1.9,0.5,2.9
	c0.2,1.6,0.3,3.3,0.4,4.9c0.1,1.4,0.8,2.3,2.1,2.8c1,0.4,1.9,1.2,3.1,1.3c0.1,0,0.1,0,0.2,0.1c1.5,1.1,3.1,2,4.7,2.8
	c1,0.5,1.9,1.1,2.9,1.6c0.9,0.5,1.9,0.9,2.9,1.4c0.1,0.4,0.2,0.8,0.3,1.1c0.1,0.7-0.2,1.3-0.9,1.6c-0.9,0.4-1.7,1-2.7,1.1
	c-1.3,0.2-1.6,0.8-1.5,2.2c0.1,1.5,0.7,2.8,1.2,4.1c0.2,0.4,0.7,0.6,0.9,1c0.9,1.8,2.4,3.3,3.4,5c1,1.7,2.2,3.3,3.1,5.2
	c0.1,0.3,0.2,0.6,0.3,0.9c-0.5,0.8-1.1,1.4-1.9,1.8c-0.7,0.4-1.6,0.6-2.1,1.4c-0.1,0.1-0.2,0.2-0.3,0.2c-1.8,0.3-3,1.7-4.6,2.5
	c-1.5,0.7-2.9,1.7-4.3,2.8c-1.1,0.8-2.4,1-3.4,1.8c-0.6,0.4-1.3,0.7-1.8,1.1c-1.5,1.3-3.3,2.1-5,3.1c-1.9,1.1-3.7,2.2-5.5,3.3
	c-0.8,0.5-1.7,0.9-2.5,1.5c-0.7,0.6-1,1.3-0.3,1.9c0.5,0.5,0.8,1,1.1,1.6c0.5,1,1.2,1.8,1.8,2.8c0.4,0.6,0.7,1.2,1.1,1.8
	c0.7,1,1.4,2,2.2,3c0.2,0.3,0.5,0.5,0.5,0.8c0.3,1.1,1.1,1.6,2,2c0.9,0.5,1.8,0.7,2.6,1.2c0.7,0.4,1.5,0.8,2.2,1.2
	c1.6,0.8,3.4,1.4,4.9,2.4c1.7,1.2,3.8,1.8,5.4,3.1c0.4,0.3,1.1,0.4,1.7,0.6c0.2,0.5,0.4,1.1,0.5,1.7c0.4,3.2,0.9,6.4,0.9,9.6
	c0,0.4,0,0.9,0.2,1.2c0.6,0.9,0.5,1.9,0.5,2.9c0.2,3.8,0.2,7.6,1,11.4c0.3,1.1,0.2,2.3,0.3,3.6c1.7,0.9,3.3,1.8,5.1,2.5
	c0.6,0.2,1.1,0.7,1.7,1c1.3,0.8,2.7,1.6,4,2.3c0.2,0.1,0.3,0.3,0.5,0.3c0.9,0.1,1.5,0.8,2.3,1.1c0.8,0.3,1.5,0.7,2.3,1.1
	c0.4,0.3,1,0.3,1.5,0.5c0.6,0.7,0.4,1.4,0.3,2.2c-1.3,1-2.6,2-4.2,2.7c-2,0.9-4,1.9-5.7,3.3c-0.2,0.2-0.4,0.2-0.7,0.3
	c-0.2,0.1-0.4,0-0.6,0.1c-0.9,0.7-2,0.9-2.9,1.5c-1.7,1-3.3,2.1-5,3.1c-0.3,0.2-0.6,0.3-0.9,0.4c-1.2,0.5-1.9,1.7-1.4,2.8
	c0.3,0.9,0.4,1.8,0.4,2.7c0.1,2,0.1,4,0.2,5.9c0,0.9-0.3,1.6-1,2.3c-3,3-6,6-9,9c-2.3,2.3-4.5,4.5-6.8,6.8c-0.5,0.5-0.9,0.9-1.4,1.4
	c-1,1-1.4,2-1.1,3.5c0.3,1.9,0.3,3.9,0.4,5.9c0,0.3,0,0.7,0,1c-0.1,1,0.4,1.8,1.1,2.4c0.4,0.4,0.7,0.8,1.1,1.1
	c0.6,0.4,0.8,1,0.8,1.7c0,1.8,0.1,3.6-0.8,5.2c-0.1,0.2-0.2,0.4-0.2,0.6c-0.2,3.3-1.6,6.4-2,9.6c-0.1,0.8-0.5,1.6-0.7,2.5
	c-0.3,1.3-0.6,2.6-0.8,3.9c-0.1,0.6,0.1,1.3,0.7,1.8c1.6,1.4,3.1,3,4.3,4.7c0.6,0.8,1.3,1.5,1.9,2.2c1.1,1.1,1.5,2.3,1.2,3.8
	c-0.1,0.4-0.1,0.8-0.2,1.2c0,0.1-0.1,0.2-0.1,0.3c-2.7,0.3-5.7,0-9-0.9C660.8,1488.1,654.3,1492,650.6,1501.3z"/>
<g>
	<g>
		<g>
			<rect x="417" y="1059.5" width="57.8" height="8.5"/>
			<rect x="417" y="832" width="57.8" height="8.5"/>
		</g>
		<polygon class="st7" points="519.5,1072.9 507.4,1085.1 384.5,1085.1 372.4,1072.9 372.4,827.1 384.5,814.9 507.4,814.9 
			519.5,827.1 		"/>
	</g>
	<g>
		<g>
			<rect x="266.2" y="982.6" width="8.5" height="57.8"/>
		</g>
		<polyline class="st7" points="358.1,937.9 261.1,937.9 248.9,950.1 248.9,1072.9 261.1,1085.1 358.8,1084.5 		"/>
	</g>
</g>
</svg>
